Coordinates
version=1
nRows=13
nColumns=34
inDegrees=yes

Units are S.I. units (second, meters, Newtons, ...)
Angles are in degrees.

endheader
time	pelvis_tilt	pelvis_list	pelvis_rotation	pelvis_tx	pelvis_ty	pelvis_tz	hip_flexion_r	hip_adduction_r	hip_rotation_r	knee_angle_r	ankle_angle_r	subtalar_angle_r	mtp_angle_r	hip_flexion_l	hip_adduction_l	hip_rotation_l	knee_angle_l	socket_flexion	socket_adduction	socket_rotation	socket_tx	socket_ty	socket_tz	pros_ankle_rx	pros_ankle_ry	pros_ankle_rz	pros_ankle_tx	pros_ankle_ty	pros_ankle_tz	foot_flex	lumbar_extension	lumbar_bending	lumbar_rotation
      0.60416667	     -1.68356522	     -2.99002987	      6.17529682	      0.04891617	      1.02120482	      0.32312461	     20.94128645	      2.77643565	     -8.26396249	      3.65173364	     13.45487126	      8.74476111	      3.94162541	    -18.82119132	     -3.25119086	      5.33085578	     -3.40662121	      6.84677799	      0.00000000	      0.00000000	      0.00000000	      0.00000000	      0.00000000	      0.00000000	      0.00000000	      0.00000000	      0.00000000	      0.00000000	      0.00000000	     13.55075369	    -18.71965575	     -0.28176114	    -11.65207714
      0.60833333	     -1.88990595	     -2.93986126	      6.40621983	      0.05502754	      1.02002603	      0.32309915	     21.18977524	      2.65886478	     -7.79965457	      3.47485955	     12.38855778	      7.99366950	      6.61171982	    -18.49822582	     -3.26749163	      5.47534669	     -4.34276576	      6.58405518	      0.00000000	      0.00000000	      0.00000000	      0.00000000	      0.00000000	      0.00000000	      0.00000000	      0.00000000	      0.00000000	      0.00000000	      0.00000000	     13.61928181	    -18.48086100	     -0.18880099	    -12.13991373
      0.61250000	     -1.82936481	     -2.97310800	      6.54555268	      0.06141043	      1.01926769	      0.32317310	     21.24587767	      2.68229058	     -7.50316622	      3.00588103	     12.06834606	      8.09076322	      6.66102611	    -18.74177368	     -3.39554124	      5.55813826	     -4.54821077	      6.77092742	      0.00000000	      0.00000000	      0.00000000	      0.00000000	      0.00000000	      0.00000000	      0.00000000	      0.00000000	      0.00000000	      0.00000000	      0.00000000	     13.67872651	    -18.44118156	     -0.03745218	    -12.11679364
      0.61666667	     -1.75309371	     -3.02359008	      6.59164710	      0.06776396	      1.01853189	      0.32338318	     21.39809537	      2.74570827	     -7.27294191	      2.31440761	     11.47014124	      8.18751267	      6.85389951	    -18.98545695	     -3.50546957	      5.45000905	     -4.80902295	      6.93911095	      0.00000000	      0.00000000	      0.00000000	      0.00000000	      0.00000000	      0.00000000	      0.00000000	      0.00000000	      0.00000000	      0.00000000	      0.00000000	     13.71992032	    -18.55573190	      0.14694796	    -12.06065616
      0.62083333	     -1.60857924	     -3.06962827	      6.69297249	      0.07411651	      1.01798521	      0.32351984	     21.49907814	      2.77739860	     -7.31243241	      1.59464459	     10.61003357	      8.50735975	     10.80549042	    -19.20162788	     -3.62938581	      5.43790545	     -5.29299887	      7.01231170	      0.00000000	      0.00000000	      0.00000000	      0.00000000	      0.00000000	      0.00000000	      0.00000000	      0.00000000	      0.00000000	      0.00000000	      0.00000000	     13.75250656	    -18.65414888	      0.29790549	    -11.92768826
      0.62500000	     -1.51451942	     -3.14132646	      6.75478201	      0.08054338	      1.01741867	      0.32366024	     21.61264747	      2.85871747	     -7.09141265	      0.85457379	     10.05477047	      8.50489987	     10.82066100	    -19.41964415	     -3.76397018	      5.39118245	     -5.60233648	      7.21843034	      0.00000000	      0.00000000	      0.00000000	      0.00000000	      0.00000000	      0.00000000	      0.00000000	      0.00000000	      0.00000000	      0.00000000	      0.00000000	     13.75213513	    -18.69819792	      0.53591519	    -11.90011292
      0.62916667	     -1.39222595	     -3.21958230	      6.80141957	      0.08695310	      1.01694890	      0.32384707	     21.71262835	      2.95864019	     -6.87860004	      0.06167029	      9.47718536	      8.49774330	     10.86575737	    -19.63409317	     -3.90106800	      5.32145218	     -5.97771941	      7.41000194	      0.00000000	      0.00000000	      0.00000000	      0.00000000	      0.00000000	      0.00000000	      0.00000000	      0.00000000	      0.00000000	      0.00000000	      0.00000000	     13.74494612	    -18.74487069	      0.76080287	    -11.83479250
      0.63333333	     -1.27074418	     -3.33058458	      6.86987357	      0.09344501	      1.01659381	      0.32402549	     21.75985122	      3.09957583	     -6.63610752	     -0.67446702	      9.00521493	      8.50656337	     10.90633333	    -19.82758238	     -4.08438653	      5.33717192	     -6.35708380	      7.62983032	      0.00000000	      0.00000000	      0.00000000	      0.00000000	      0.00000000	      0.00000000	      0.00000000	      0.00000000	      0.00000000	      0.00000000	      0.00000000	     13.70825820	    -18.75120449	      0.91425461	    -11.77614263
      0.63750000	     -1.10360683	     -3.40998417	      6.79260225	      0.09980087	      1.01631583	      0.32440868	     21.95216174	      3.22905397	     -6.57369787	     -1.75043699	      8.19910427	      8.42812577	     11.01411834	    -20.01591535	     -4.17084711	      5.01798015	     -6.91144898	      7.78060311	      0.00000000	      0.00000000	      0.00000000	      0.00000000	      0.00000000	      0.00000000	      0.00000000	      0.00000000	      0.00000000	      0.00000000	      0.00000000	     13.63968656	    -18.96900671	      1.22276854	    -11.60825085
      0.64166667	     -1.10534162	     -3.46375346	      6.84088927	      0.10581169	      1.01581212	      0.32472844	     22.39966912	      3.24708901	     -6.72168267	     -2.93528807	      7.41584891	      8.61013378	     14.20976521	    -19.56728212	     -4.23186367	      4.85699429	     -8.64071638	      7.22237229	      0.00000000	      0.00000000	      0.00000000	      0.00000000	      0.00000000	      0.00000000	      0.00000000	      0.00000000	      0.00000000	      0.00000000	      0.00000000	     13.55248777	    -19.06458627	      1.28197681	    -11.26282298
      0.64583333	     -0.88897180	     -3.57952128	      6.77487070	      0.11227678	      1.01577155	      0.32510582	     22.46100839	      3.42460866	     -6.65080133	     -3.92905167	      6.80071726	      8.57015589	     14.28873368	    -19.78703367	     -4.37108103	      4.61929244	     -9.18426701	      7.44297830	      0.00000000	      0.00000000	      0.00000000	      0.00000000	      0.00000000	      0.00000000	      0.00000000	      0.00000000	      0.00000000	      0.00000000	      0.00000000	     13.43277715	    -19.26753180	      1.49868073	    -11.04191121
      0.65000000	     -0.63794851	     -3.66839126	      6.69980334	      0.11848946	      1.01584475	      0.32552899	     22.53861960	      3.57244676	     -6.64145135	     -5.01823922	      6.30396517	      8.64810165	     14.64753159	    -19.84827359	     -4.46644698	      4.35727658	    -10.23247073	      7.35257141	      0.00000000	      0.00000000	      0.00000000	      0.00000000	      0.00000000	      0.00000000	      0.00000000	      0.00000000	      0.00000000	      0.00000000	      0.00000000	     13.23853319	    -19.58045025	      1.68541058	    -10.58946039
      0.65416667	     -0.45356221	     -3.78763810	      6.62100993	      0.12504736	      1.01591493	      0.32594552	     22.62433490	      3.74792985	     -6.64086198	     -6.03112860	      5.73255884	      8.58113437	     14.69463752	    -19.99346009	     -4.59749760	      4.11079792	    -10.81695251	      7.60920420	      0.00000000	      0.00000000	      0.00000000	      0.00000000	      0.00000000	      0.00000000	      0.00000000	      0.00000000	      0.00000000	      0.00000000	      0.00000000	     13.03522566	    -19.65048092	      1.98346532	    -10.51579730
